<svg width="25" height="24" viewBox="0 0 25 24" fill="none" xmlns="http://www.w3.org/2000/svg">
<g clip-path="url(#clip0_1118_1846)">
<path d="M15.8925 11.1227C15.4165 11.5537 14.7699 11.7953 14.0973 11.7953C13.4246 11.7953 12.778 11.5537 12.3021 11.1227C12.2297 11.059 12.1328 11.0243 12.0316 11.0258C11.9303 11.0258 11.8348 11.0634 11.7639 11.1285C11.6931 11.1936 11.6526 11.2803 11.6511 11.3715C11.6511 11.4626 11.6887 11.5509 11.7596 11.616C12.3802 12.1758 13.2221 12.4911 14.0987 12.4911C14.9753 12.4911 15.8158 12.1772 16.4378 11.616C16.5101 11.5509 16.5506 11.4626 16.5506 11.37C16.5506 11.2775 16.5101 11.1892 16.4378 11.1241C16.4016 11.0923 16.3597 11.0663 16.3134 11.0489C16.2671 11.0315 16.2165 11.0229 16.1659 11.0229C16.0631 11.0229 15.9662 11.059 15.8939 11.1256L15.8925 11.1227Z" fill="#D44246"/>
<path d="M21.3127 6.19709H20.7066C20.4737 5.59676 20.0658 5.08179 19.5335 4.7187C19.0026 4.35561 18.3733 4.16177 17.7296 4.16322C17.0859 4.16322 16.4581 4.3614 15.9286 4.72593C15.3992 5.09191 14.9927 5.60834 14.7612 6.21011L13.5693 6.20143C13.3364 5.60255 12.9284 5.08757 12.399 4.72448C11.8695 4.3614 11.2417 4.16756 10.5995 4.16756C9.95719 4.16756 9.32938 4.3614 8.79993 4.72448C8.27049 5.08757 7.86256 5.60255 7.62966 6.20143H7.13349C7.03223 6.20143 6.93675 6.24193 6.86587 6.31281C6.79499 6.3837 6.75449 6.48062 6.75449 6.58043C6.75449 6.68024 6.79499 6.77716 6.86587 6.84804C6.93675 6.91893 7.03367 6.95943 7.13349 6.95943H7.43727C7.42135 7.08673 7.41267 7.21547 7.41123 7.34422C7.41123 8.18901 7.74683 8.99909 8.34426 9.59652C8.9417 10.194 9.75177 10.5296 10.5966 10.5296C11.4414 10.5296 12.2514 10.194 12.8489 9.59652C13.4463 8.99909 13.7819 8.18901 13.7819 7.34422C13.7819 7.21692 13.7718 7.08962 13.7559 6.96377H14.5717C14.5558 7.08817 14.5471 7.21258 14.5471 7.33843C14.5471 8.18323 14.8827 8.9933 15.4802 9.59074C16.0776 10.1882 16.8877 10.5238 17.7325 10.5238C18.5773 10.5238 19.3874 10.1882 19.9848 9.59074C20.5822 8.9933 20.9178 8.18323 20.9178 7.33843C20.9178 7.20969 20.9077 7.08094 20.8918 6.95364H21.3113C21.4126 6.95364 21.508 6.91314 21.5789 6.84226C21.6498 6.77138 21.6903 6.67446 21.6903 6.57464C21.6903 6.47483 21.6498 6.37791 21.5789 6.30703C21.508 6.23615 21.4111 6.19564 21.3113 6.19564V6.19854L21.3127 6.19709ZM10.5951 9.76866C10.1149 9.76866 9.64617 9.6269 9.24692 9.35929C8.84767 9.09312 8.53666 8.71412 8.35294 8.27002C8.16923 7.82592 8.12149 7.33843 8.21552 6.86685C8.30955 6.39527 8.541 5.96275 8.87949 5.62425C9.21944 5.28431 9.65196 5.0543 10.1221 4.96027C10.5922 4.86625 11.0812 4.91398 11.5238 5.0977C11.9679 5.28141 12.3469 5.59242 12.6131 5.99168C12.8793 6.39093 13.0225 6.85962 13.0225 7.33988C13.0225 7.9836 12.7664 8.60128 12.3122 9.05695C11.8565 9.51262 11.2403 9.76722 10.5966 9.76722L10.5951 9.76866ZM17.7325 9.76866C17.2522 9.76866 16.7835 9.6269 16.3843 9.35929C15.985 9.09312 15.674 8.71412 15.4903 8.27002C15.3066 7.82592 15.2589 7.33843 15.3529 6.86685C15.4469 6.39527 15.6784 5.96275 16.0169 5.62425C16.3568 5.28431 16.7893 5.0543 17.2595 4.96027C17.7296 4.86625 18.2185 4.91398 18.6612 5.0977C19.1053 5.28141 19.4843 5.59242 19.7504 5.99168C20.0166 6.39093 20.1598 6.85962 20.1598 7.33988C20.1598 7.9836 19.9038 8.60128 19.4496 9.05695C18.9939 9.51262 18.3777 9.76722 17.7339 9.76722L17.7325 9.76866Z" fill="#D44246"/>
<path d="M12.6304 0.763788C14.8524 0.763788 17.0251 1.42342 18.8724 2.65734C20.7196 3.89127 22.1604 5.64595 23.011 7.70008C23.8616 9.75276 24.0844 12.0123 23.6504 14.1923C23.2164 16.3723 22.1474 18.3743 20.575 19.9453C19.004 21.5162 17.002 22.5867 14.822 23.0207C12.642 23.4546 10.3839 23.2319 8.32979 22.3813C6.27712 21.5307 4.52243 20.0914 3.28706 18.2427C2.05314 16.3954 1.3935 14.2227 1.3935 12.0007C1.3935 10.5252 1.68426 9.06419 2.24843 7.70153C2.81259 6.33886 3.64002 5.09915 4.68444 4.05618C5.72742 3.0132 6.96713 2.18576 8.32979 1.62016C9.69246 1.05599 11.1535 0.765234 12.629 0.765234L12.6304 0.763788ZM12.6304 0C10.2566 0 7.93777 0.704478 5.96321 2.0223C3.99009 3.34012 2.45239 5.21488 1.54395 7.40787C0.636949 9.60087 0.398266 12.0123 0.861167 14.3413C1.32407 16.6688 2.46686 18.8068 4.14488 20.4848C5.82289 22.1629 7.96092 23.3056 10.2884 23.7685C12.616 24.2315 15.0288 23.9942 17.2218 23.0858C19.4148 22.1773 21.2881 20.6396 22.6074 18.6665C23.9252 16.6934 24.6297 14.3731 24.6297 11.9993C24.6268 8.81827 23.3611 5.76746 21.1117 3.51805C18.8623 1.26864 15.8129 0.0043397 12.6304 0Z" fill="#D44246"/>
<path d="M14.1841 14.0491C13.8398 14.0491 13.5606 14.3283 13.5606 14.6725C13.5606 15.0168 13.8398 15.296 14.1841 15.296C14.5283 15.296 14.8075 15.0168 14.8075 14.6725C14.8075 14.3283 14.5283 14.0491 14.1841 14.0491Z" fill="#D44246"/>
</g>
<defs>
<clipPath id="clip0_1118_1846">
<rect width="24" height="24" fill="white" transform="translate(0.631165)"/>
</clipPath>
</defs>
</svg>
