<svg width="25" height="24" viewBox="0 0 25 24" fill="none" xmlns="http://www.w3.org/2000/svg">
<g clip-path="url(#clip0_1112_559)">
<path d="M19.5924 13.3718C19.3314 12.9342 19.1934 12.4331 19.1934 11.9237V11.1875C19.1934 11.0022 19.0436 10.8521 18.8587 10.8521C18.6738 10.8521 18.524 11.0022 18.524 11.1875V11.9237C18.524 12.5549 18.6947 13.1743 19.0182 13.716L19.3017 14.1907C19.3934 14.3442 19.4202 14.5246 19.3763 14.6981C19.3329 14.8717 19.2246 15.0178 19.0709 15.1098C18.967 15.1718 18.8484 15.2051 18.7284 15.2051C18.4903 15.2051 18.2756 15.0829 18.1537 14.879L17.8702 14.4043C17.4228 13.6549 17.1862 12.7974 17.1862 11.9237V11.1875C17.1862 11.0022 17.0364 10.8521 16.8515 10.8521C16.6666 10.8521 16.5168 11.0022 16.5168 11.1875V11.9237C16.5168 12.9181 16.7861 13.8949 17.2955 14.7485L17.5789 15.2232C17.819 15.6255 18.2595 15.8758 18.7279 15.8758C18.9689 15.8758 19.206 15.8098 19.4139 15.6856C19.7208 15.5018 19.9374 15.2095 20.0247 14.8619C20.112 14.5148 20.0589 14.154 19.8754 13.847L19.592 13.3728L19.5924 13.3718Z" fill="#D44246"/>
<path d="M10.5611 10.723C10.5587 10.723 10.5558 10.723 10.5533 10.723C10.3723 10.723 10.2235 10.8678 10.2191 11.0501C10.1757 12.9069 8.68961 14.396 6.83612 14.44C5.89499 14.4615 5.00313 14.1115 4.32935 13.452C3.65558 12.7925 3.2843 11.9096 3.2843 10.966C3.2843 10.7807 3.13451 10.6306 2.94961 10.6306C2.7647 10.6306 2.61491 10.7807 2.61491 10.966C2.61491 12.0914 3.05743 13.1445 3.86147 13.9316C4.64111 14.6947 5.66373 15.1112 6.75123 15.1112C6.78441 15.1112 6.81807 15.1112 6.85173 15.1102C9.06284 15.0579 10.8353 13.2818 10.8875 11.0662C10.8919 10.8814 10.7456 10.7274 10.5611 10.7235V10.723Z" fill="#D44246"/>
<path d="M24.2718 7.49548C24.2098 7.43339 24.1254 7.39819 24.0381 7.39819V7.40064H23.5092C23.3062 6.87607 22.9496 6.42581 22.4866 6.10853C22.207 5.91689 21.8957 5.78049 21.5698 5.70178C21.564 5.68565 21.5581 5.66952 21.5498 5.65387C21.0131 4.66781 20.3252 3.77023 19.5051 2.98656C17.4896 1.06087 14.8316 0 12.0199 0C9.20821 0 6.5502 1.06087 4.53522 2.98704C2.40022 5.02762 1.20587 7.77707 1.17074 10.7289C1.16586 11.1582 1.18831 11.5835 1.23173 12.0039C1.22734 12.0103 1.22197 12.0156 1.21807 12.0225C0.850688 12.6341 0.647727 13.3341 0.631139 14.046C0.626748 14.2307 0.773114 14.3847 0.957536 14.3887C0.959975 14.3887 0.962903 14.3887 0.965342 14.3887C1.14635 14.3887 1.29515 14.2439 1.29955 14.0616C1.30638 13.7751 1.35029 13.4911 1.42688 13.2163C1.86647 15.2188 2.86371 17.0574 4.35031 18.5475L4.53473 18.7279C4.85527 19.0345 5.13483 19.2857 5.48709 19.5483V22.7333C5.48709 23.4319 6.0545 24.0005 6.75169 24.0005C7.1342 24.0005 7.4767 23.8289 7.70893 23.559C7.93873 23.7942 8.25829 23.9408 8.61201 23.9408C9.3092 23.9408 9.87613 23.3723 9.87613 22.6737V21.5253C10.5899 21.6725 11.3173 21.7477 12.0463 21.7477C12.7752 21.7477 13.4855 21.6744 14.1944 21.5287V22.6737C14.1944 23.3723 14.7618 23.9408 15.459 23.9408C15.8128 23.9408 16.1323 23.7942 16.3621 23.559C16.5943 23.8289 16.9368 24.0005 17.3193 24.0005C18.0165 24.0005 18.5835 23.4319 18.5835 22.7333V19.5155C18.9035 19.2701 19.2124 19.0076 19.5075 18.7255L19.6919 18.5451C21.8362 16.3965 22.9896 13.4241 22.8588 10.3872C22.8661 10.3803 22.874 10.3745 22.8808 10.3671C23.4018 9.84503 23.6946 9.13713 23.6946 8.39843C23.6936 8.28599 23.6863 8.17355 23.6721 8.0616H24.0385C24.1264 8.0616 24.2103 8.02689 24.2722 7.96431C24.3342 7.90222 24.3688 7.81765 24.3688 7.73014C24.3688 7.64263 24.3342 7.55805 24.2722 7.49597L24.2718 7.49548ZM9.20723 22.6732C9.20723 23.0022 8.94036 23.2701 8.61201 23.2701C8.28366 23.2701 8.0163 23.0022 8.0163 22.6732V20.9616C8.40563 21.12 8.80326 21.2545 9.20723 21.3654V22.6737V22.6732ZM17.9141 22.7328C17.9141 23.0618 17.6472 23.3297 17.3189 23.3297C16.9905 23.3297 16.7231 23.0618 16.7231 22.7328V20.6654C17.134 20.4654 17.5311 20.2395 17.9141 19.9892V22.7328ZM19.2216 18.068L19.0431 18.243C18.2288 19.0213 17.3076 19.6549 16.3045 20.1256C16.3006 20.1276 16.2977 20.13 16.2943 20.132C16.1562 20.1731 16.0547 20.3002 16.0547 20.4517V22.6732C16.0547 23.0022 15.7874 23.2701 15.459 23.2701C15.1307 23.2701 14.8633 23.0022 14.8633 22.6732V21.142C14.8633 21.0633 14.835 20.9919 14.7896 20.9347C14.7145 20.8169 14.5721 20.7534 14.4296 20.789C12.2263 21.3307 9.88003 21.1029 7.82261 20.1472C7.82114 20.1462 7.81919 20.1462 7.81724 20.1452C7.80553 20.1398 7.79333 20.1364 7.78114 20.133C7.77187 20.13 7.76309 20.1266 7.75382 20.1247C7.74406 20.1227 7.73332 20.1217 7.72308 20.1208C7.71088 20.1193 7.69917 20.1173 7.68697 20.1173C7.68502 20.1173 7.68356 20.1168 7.68161 20.1168C7.67331 20.1168 7.66551 20.1188 7.65721 20.1193C7.6455 20.1203 7.63379 20.1208 7.62209 20.1227C7.61086 20.1247 7.59964 20.1281 7.58891 20.1315C7.57915 20.1344 7.56988 20.1369 7.56012 20.1403C7.54939 20.1447 7.53915 20.1501 7.5289 20.1555C7.52012 20.1599 7.51085 20.1643 7.50255 20.1696C7.49328 20.1755 7.48499 20.1824 7.47621 20.1892C7.46791 20.196 7.45913 20.2024 7.45132 20.2097C7.44352 20.2171 7.43669 20.2259 7.42937 20.2337C7.42254 20.242 7.41522 20.2498 7.40888 20.2586C7.40205 20.2684 7.39619 20.2796 7.39034 20.2904C7.38644 20.2972 7.38156 20.3036 7.37814 20.3109C7.37717 20.3124 7.37717 20.3143 7.37619 20.3163C7.37131 20.3275 7.3679 20.3393 7.36399 20.351C7.36107 20.3608 7.35716 20.3701 7.35521 20.3803C7.35326 20.3896 7.35277 20.3989 7.35131 20.4087C7.34984 20.4214 7.34789 20.4346 7.34741 20.4473C7.34741 20.4493 7.34692 20.4507 7.34692 20.4522V22.7338C7.34692 23.0628 7.07955 23.3307 6.75121 23.3307C6.42286 23.3307 6.15549 23.0628 6.15549 22.7338V19.43C6.15549 19.4217 6.15354 19.4143 6.15306 19.4065C6.16233 19.2931 6.11451 19.1772 6.01547 19.1063C5.62662 18.8282 5.33682 18.57 4.99871 18.2469L4.82015 18.0719C2.86518 16.1129 1.80646 13.5082 1.83915 10.7377C1.87184 7.96822 2.993 5.38792 4.99578 3.47299C8.93402 -0.291371 15.1034 -0.291371 19.0416 3.47299C19.7144 4.11635 20.2925 4.84087 20.7638 5.63041C20.255 5.65876 19.7627 5.82547 19.3416 6.11635C18.8796 6.43559 18.5249 6.88731 18.3239 7.41286L17.2842 7.40504C17.0817 6.88145 16.7261 6.43168 16.264 6.1144C15.802 5.79712 15.2546 5.62747 14.6945 5.62747C14.1344 5.62747 13.587 5.79712 13.125 6.1144C12.6629 6.43168 12.3068 6.88145 12.1043 7.40504H11.6716C11.5837 7.40504 11.4998 7.43975 11.4379 7.50232C11.3759 7.56441 11.3408 7.64899 11.3408 7.73649C11.3408 7.824 11.3759 7.90858 11.4379 7.97067C11.4998 8.03275 11.5842 8.06795 11.6716 8.06795H11.936C11.9218 8.17942 11.9145 8.29186 11.9135 8.40479C11.9135 9.143 12.2063 9.85138 12.7273 10.3735C13.2484 10.8956 13.9549 11.189 14.6916 11.189C15.4283 11.189 16.1348 10.8956 16.6558 10.3735C17.1769 9.85138 17.4696 9.14349 17.4696 8.40479C17.4686 8.29333 17.4613 8.18235 17.4472 8.07186H18.159C18.1453 8.1804 18.138 8.2899 18.138 8.39941C18.138 9.13762 18.4308 9.846 18.9518 10.3681C19.4729 10.8902 20.1793 11.1836 20.9161 11.1836C21.3669 11.1836 21.806 11.0726 22.1987 10.8678C22.1948 13.559 21.1244 16.1623 19.2216 18.0694V18.068ZM16.809 8.40088C16.809 8.96358 16.5861 9.50281 16.1889 9.90076C15.7923 10.2987 15.2536 10.5221 14.6926 10.5221C14.274 10.5221 13.8646 10.3979 13.5167 10.1648C13.1689 9.93156 12.8976 9.60059 12.7371 9.21291C12.5771 8.82523 12.5351 8.39892 12.6166 7.98729C12.6981 7.57565 12.9001 7.19775 13.1957 6.901C13.4919 6.60425 13.869 6.40235 14.2793 6.3207C14.6896 6.23906 15.1156 6.2811 15.502 6.44146C15.8889 6.60181 16.2192 6.87411 16.4519 7.22268C16.6846 7.57174 16.8085 7.98142 16.8085 8.40137L16.809 8.40088ZM22.4129 9.90076C22.0158 10.2987 21.4776 10.5221 20.9165 10.5221C20.4979 10.5221 20.0886 10.3979 19.7407 10.1648C19.3929 9.93156 19.1216 9.60059 18.9611 9.21291C18.8011 8.82523 18.7591 8.39892 18.8406 7.98729C18.9221 7.57565 19.1236 7.19775 19.4197 6.901C19.7159 6.60425 20.093 6.40235 20.5033 6.3207C20.9141 6.23906 21.3395 6.2811 21.726 6.44146C22.1128 6.60181 22.4431 6.87411 22.6759 7.22268C22.9086 7.57174 23.0325 7.98142 23.0325 8.40137C23.0325 8.96407 22.8096 9.5033 22.4124 9.90125L22.4129 9.90076Z" fill="#D44246"/>
</g>
<defs>
<clipPath id="clip0_1112_559">
<rect width="23.7377" height="24" fill="white" transform="translate(0.631165)"/>
</clipPath>
</defs>
</svg>
