<svg width="24" height="24" viewBox="0 0 24 24" fill="none" xmlns="http://www.w3.org/2000/svg">
<g clip-path="url(#clip0_1121_2236)">
<path d="M16.0853 7.81417C15.8721 8.10894 15.9385 8.52015 16.2332 8.73335C16.528 8.94655 16.9392 8.88017 17.1524 8.58541C17.3656 8.29064 17.2992 7.87942 17.0045 7.66622C16.7097 7.45302 16.2985 7.5194 16.0853 7.81417Z" fill="#D44246"/>
<path d="M22.7001 3.77406C22.3176 3.65649 21.9126 3.69474 21.5588 3.88207C21.4643 3.93213 21.3771 3.99232 21.2966 4.05926C21.1858 3.88488 21.0418 3.73637 20.8725 3.62161C20.6666 3.41347 20.4523 3.20759 20.2261 3.00564L20.7853 2.27715C21.0154 1.97732 21.1149 1.60549 21.066 1.23084C21.0165 0.855627 20.8247 0.522606 20.5248 0.292529C20.225 0.0624521 19.8532 -0.0376791 19.4785 0.011824C19.1061 0.0635772 18.7703 0.253152 18.5402 0.552983L17.7791 1.54417C15.1295 1.26234 12.4716 1.71518 10.0521 2.86388L8.86291 1.85919C8.57433 1.61505 8.20755 1.49804 7.83065 1.53011C7.45375 1.56161 7.1123 1.73824 6.86816 2.02682C6.36412 2.62311 6.4395 3.51754 7.03579 4.02157L7.50495 4.41816C6.39675 5.26478 5.42019 6.26609 4.60226 7.40297C2.75265 9.97263 1.79015 13.3045 1.93135 16.5925C1.61014 16.9486 1.30243 17.3238 1.01723 17.7114C0.894595 17.8779 0.930035 18.1125 1.09655 18.2352C1.17249 18.2914 1.26249 18.3139 1.34969 18.3066C1.45375 18.2976 1.55332 18.2458 1.6197 18.1553C1.81772 17.8869 2.02698 17.6248 2.24355 17.3711C3.23024 18.5423 4.41719 19.5054 5.77796 20.2361L5.97766 22.6128C6.04292 23.3902 6.72921 23.9702 7.50663 23.9049C7.91785 23.8706 8.27224 23.6614 8.50626 23.3582C8.78753 23.6164 9.17117 23.7621 9.5807 23.7277C10.3581 23.6625 10.9381 22.9768 10.8728 22.1988L10.816 21.5249C11.3769 21.5519 11.9478 21.5417 12.5273 21.4934C13.8138 21.3853 15.0643 21.076 16.2383 20.582L16.4166 22.7028C16.4819 23.4802 17.1682 24.0602 17.9456 23.9944C18.3557 23.9601 18.709 23.7519 18.9435 23.4504C19.2254 23.7103 19.6096 23.8571 20.0208 23.8228C20.7982 23.7576 21.3782 23.0713 21.3129 22.2938L20.891 17.2732C21.4536 16.5965 21.9357 15.9079 22.3367 15.2121C22.3418 15.2036 22.348 15.1952 22.3531 15.1862C22.3581 15.1772 22.3615 15.1676 22.366 15.1586C23.54 13.1003 24.003 10.9807 23.7071 8.92407C23.6143 8.27884 23.4449 7.64543 23.2031 7.0272C23.3246 6.76731 23.4298 6.49954 23.5147 6.2239L23.6925 5.64449C23.9349 4.85525 23.4899 4.01595 22.7007 3.7735L22.7001 3.77406ZM19.1342 1.00976C19.2428 0.868565 19.3986 0.777997 19.5758 0.754933C19.7525 0.731869 19.9274 0.778559 20.0686 0.887129C20.2098 0.995698 20.3004 1.15265 20.3234 1.32872C20.3465 1.50535 20.2998 1.6803 20.1912 1.8215L19.6546 2.52017C19.3176 2.24734 18.961 1.98126 18.5858 1.72306L19.1337 1.0092L19.1342 1.00976ZM10.1269 22.2618C10.1579 22.628 9.88447 22.9509 9.51826 22.9818C9.15205 23.0128 8.82915 22.7399 8.79821 22.3737L8.70258 21.2329C9.14586 21.337 9.59926 21.4118 10.06 21.4635L10.1269 22.2623V22.2618ZM20.0242 23.0679C19.6315 23.1399 19.2704 22.8564 19.2377 22.4682L19.0521 20.2575C19.0521 20.2462 19.0538 20.2355 19.0521 20.2237L18.9458 18.9614C19.3879 18.6227 19.8008 18.2633 20.1901 17.8881L20.5631 22.327C20.5923 22.6736 20.3656 23.0054 20.023 23.0679H20.0242ZM22.9651 5.46054L22.798 6.00451C22.5179 6.91694 22.0015 7.73937 21.3011 8.38854L20.6767 8.96682C20.5991 9.03883 20.5591 9.13558 20.5574 9.23346C20.5541 9.2869 20.5614 9.34203 20.5828 9.39547C20.7262 9.75381 21.0075 10.8125 20.5929 11.4003C20.1327 12.054 19.4858 11.9213 19.4628 11.9162C19.2614 11.8678 19.0594 11.991 19.0105 12.1918C18.9615 12.3927 19.0853 12.5952 19.2861 12.6441C19.3058 12.6486 19.5083 12.6953 19.793 12.6717C20.1946 12.6379 20.76 12.4635 21.2049 11.8324C21.7787 11.0189 21.5138 9.85281 21.3602 9.35553L21.8108 8.93813C22.1494 8.62424 22.4476 8.27265 22.7063 7.89407C22.8211 8.26872 22.9105 8.64786 22.9657 9.03151C23.2396 10.9363 22.7986 12.9113 21.6865 14.8403C20.8533 16.223 19.726 17.4504 18.3326 18.4872C18.2286 18.5642 18.1723 18.6897 18.183 18.8191L18.2392 19.4902L18.2376 19.5087L18.489 22.4992C18.5183 22.8457 18.2916 23.177 17.949 23.24C17.5563 23.312 17.1952 23.0285 17.1625 22.6404L16.9617 20.249C16.9617 20.249 16.9623 20.249 16.9629 20.249V20.2389C16.9302 19.8626 16.537 19.6297 16.1927 19.7844C15.021 20.3109 13.762 20.6383 12.4648 20.7474C11.045 20.8667 9.68027 20.7446 8.4095 20.3835C8.33187 20.3559 8.24355 20.352 8.15299 20.3857C7.99266 20.4459 7.89928 20.6152 7.91335 20.7857L8.04948 22.4086C8.07873 22.7551 7.85203 23.0865 7.51001 23.1495C7.11736 23.2215 6.75621 22.9379 6.72358 22.5498L6.50813 19.9858C6.49745 19.8581 6.42375 19.7512 6.32081 19.6921C6.29887 19.6724 6.27468 19.6544 6.24712 19.6404C4.86384 18.9169 3.66733 17.9421 2.69021 16.7416C2.68908 16.7405 2.68796 16.7394 2.68683 16.7382C2.50851 13.5577 3.42319 10.3214 5.2098 7.84006C6.01704 6.71837 6.98685 5.73618 8.09111 4.91376L8.62158 5.36153C8.70033 5.42847 8.79934 5.4566 8.89441 5.44873C8.99904 5.43973 9.09973 5.38741 9.16724 5.29403C9.28368 5.13202 9.23924 4.90363 9.08679 4.77481L7.5432 3.47085C7.27093 3.24078 7.19949 2.83294 7.411 2.54661C7.54151 2.36941 7.74402 2.26984 7.96566 2.27434C8.12655 2.27772 8.27899 2.34747 8.40163 2.45098L9.90697 3.72287C10.0712 3.86125 10.3345 3.85394 10.4656 3.68405C10.5162 3.61824 10.5404 3.54061 10.5421 3.46298C12.9345 2.36716 15.5633 1.98126 18.1684 2.3486C18.6752 2.69849 19.1466 3.06133 19.5792 3.4371C19.5207 3.45566 19.4628 3.47704 19.4059 3.50348C19.0425 3.67112 18.7669 3.97038 18.6285 4.34559L18.5059 4.67918C18.4299 4.88507 18.3011 5.06733 18.1324 5.2074L17.8275 5.46054C17.3088 5.19277 16.7249 5.07408 16.1415 5.12302C15.5166 5.17533 14.922 5.4161 14.4365 5.81212C13.9505 6.20871 13.5961 6.74256 13.4189 7.34447L12.9362 7.38497C12.8383 7.39341 12.7478 7.4401 12.6848 7.51492C12.6212 7.58974 12.5903 7.68705 12.5987 7.78494C12.6071 7.88282 12.6538 7.97338 12.7286 8.03695C12.8035 8.10052 12.9008 8.13146 12.9987 8.12302L13.294 8.09827C13.2884 8.22371 13.2906 8.34972 13.3002 8.47517C13.3694 9.29703 13.762 10.0581 14.3921 10.5903C15.0221 11.1225 15.8378 11.3829 16.6596 11.3137C17.4815 11.2445 18.2421 10.8519 18.7742 10.2218C18.813 10.1757 18.8507 10.1285 18.8867 10.0806C19.4414 9.34147 19.5955 8.3756 19.3609 7.48173L19.3024 7.2584C19.1657 6.73749 18.8794 6.26834 18.4789 5.90832L18.4699 5.90044L18.6105 5.784C18.8811 5.55955 19.0881 5.26759 19.2096 4.93738L19.3322 4.60436C19.3463 4.56611 19.3649 4.53067 19.3846 4.49579C19.4774 4.27753 19.6737 4.10595 19.9814 4.08008C20.3915 4.04576 20.6486 4.29722 20.7352 4.60324C20.774 4.70899 20.7881 4.82094 20.7774 4.93176L20.7341 5.07239C20.7301 5.08589 20.7262 5.09939 20.7217 5.11289L20.6503 5.34466C20.6379 5.3846 20.6244 5.4251 20.6098 5.46448C20.5074 5.73674 20.4163 5.93926 20.2537 6.17496C20.2548 6.17496 20.2559 6.17608 20.2571 6.17608C20.153 6.34203 20.1935 6.56198 20.3544 6.67787C20.4298 6.73187 20.5186 6.75437 20.6041 6.74706C20.7093 6.73806 20.81 6.68518 20.877 6.59236L21.0412 6.36397C21.0564 6.34259 21.0694 6.32009 21.0795 6.29703C21.1768 6.13277 21.2077 6.0107 21.3034 5.74687C21.3079 5.73618 21.3124 5.72549 21.3163 5.71481L21.4395 5.38066C21.4761 5.28053 21.5014 5.17815 21.516 5.0752L21.5346 5.01445C21.5891 4.83669 21.6977 4.6758 21.8541 4.57567C22.0572 4.44573 22.303 4.42041 22.528 4.50648C22.8886 4.6443 23.0776 5.09152 22.964 5.46054H22.9651ZM18.7601 8.01332C18.813 8.63943 18.6145 9.26103 18.2089 9.74087C17.8033 10.2207 17.2239 10.52 16.5978 10.5729C16.1309 10.6122 15.6628 10.5121 15.2527 10.2854C14.8427 10.0587 14.5091 9.71499 14.2942 9.29872C14.0793 8.88244 13.9927 8.4116 14.045 7.94582C14.0973 7.48004 14.2869 7.0407 14.5895 6.68237C14.8922 6.32459 15.2938 6.06414 15.7438 5.93476C16.1944 5.80537 16.6726 5.81212 17.1192 5.95445C17.5659 6.09677 17.9597 6.36847 18.2516 6.73524C18.5436 7.10202 18.7202 7.54642 18.7596 8.01389L18.7601 8.01332Z" fill="#D44246"/>
</g>
<defs>
<clipPath id="clip0_1121_2236">
<rect width="22.8496" height="24" fill="white" transform="translate(0.944092)"/>
</clipPath>
</defs>
</svg>
